/* XPM */
static char * beta_xpm[] = {
"150 50 193 2",
"  	c None",
". 	c #FFFFFF",
"+ 	c #FF8800",
"@ 	c #FE8904",
"# 	c #FE9013",
"$ 	c #FE9A28",
"% 	c #FEB057",
"& 	c #FECD95",
"* 	c #FEF6EE",
"= 	c #FEFDFC",
"- 	c #FEE8CF",
"; 	c #FECD96",
"> 	c #FEB35E",
", 	c #FE9926",
"' 	c #FE8A07",
") 	c #FEC17C",
"! 	c #FEFBF8",
"~ 	c #FE9F33",
"{ 	c #FEDBB4",
"] 	c #FEA43F",
"^ 	c #FE8C0B",
"/ 	c #FEA33D",
"( 	c #FEF9F4",
"_ 	c #FEC27F",
": 	c #FE9C2D",
"< 	c #FEEFDF",
"[ 	c #FEEBD7",
"} 	c #FEE2C4",
"| 	c #FECC94",
"1 	c #FEA33B",
"2 	c #FEB25D",
"3 	c #FE941B",
"4 	c #FE8D0C",
"5 	c #FECF9A",
"6 	c #FE8802",
"7 	c #FEE9D1",
"8 	c #FE8B09",
"9 	c #FEBD73",
"0 	c #FED7AB",
"a 	c #FEF1E4",
"b 	c #FEB96B",
"c 	c #FEC17D",
"d 	c #FEF5EC",
"e 	c #FEFCFA",
"f 	c #FEE7CD",
"g 	c #FEAC4F",
"h 	c #FEF9F5",
"i 	c #FEA23A",
"j 	c #FEF4EA",
"k 	c #FED9B0",
"l 	c #FECD97",
"m 	c #FEC585",
"n 	c #FED9AF",
"o 	c #FEE0BE",
"p 	c #FEC78A",
"q 	c #FED8AD",
"r 	c #FEF2E5",
"s 	c #FEA540",
"t 	c #FEDAB1",
"u 	c #FEA138",
"v 	c #FEA744",
"w 	c #FEE6CB",
"x 	c #FEE4C8",
"y 	c #FEBC71",
"z 	c #FE9B2A",
"A 	c #FE9C2C",
"B 	c #FED19F",
"C 	c #FEFCFB",
"D 	c #FEE7CE",
"E 	c #FEB460",
"F 	c #FEF7EF",
"G 	c #FEA745",
"H 	c #FE8701",
"I 	c #FEC482",
"J 	c #FEA541",
"K 	c #FEF5EB",
"L 	c #FEBA6D",
"M 	c #FEF3E7",
"N 	c #FE951E",
"O 	c #FEAA4C",
"P 	c #FEB15A",
"Q 	c #FEA846",
"R 	c #FE8E0F",
"S 	c #FEC07B",
"T 	c #FE8A06",
"U 	c #FE9D30",
"V 	c #FEAE54",
"W 	c #FEA239",
"X 	c #FE8C0A",
"Y 	c #FEA137",
"Z 	c #FE9217",
"` 	c #FEF8F3",
" .	c #FEFDFD",
"..	c #FEA643",
"+.	c #FEE5CA",
"@.	c #FECB91",
"#.	c #FEDFBD",
"$.	c #FE8F12",
"%.	c #FEE1C0",
"&.	c #FECE99",
"*.	c #FEECD9",
"=.	c #FEE3C5",
"-.	c #FEA43E",
";.	c #FE8905",
">.	c #FEDCB7",
",.	c #FECC93",
"'.	c #FEB562",
").	c #FEDEBB",
"!.	c #FE8803",
"~.	c #FE9E31",
"{.	c #FE9115",
"].	c #FEE4C7",
"^.	c #FE951F",
"/.	c #FE9B2B",
"(.	c #FEBA6E",
"_.	c #FEE2C2",
":.	c #FECB92",
"<.	c #FEDBB5",
"[.	c #FEAA4B",
"}.	c #FEDBB3",
"|.	c #FED4A6",
"1.	c #FEECD8",
"2.	c #FEBF78",
"3.	c #FEF0E1",
"4.	c #FEAA4A",
"5.	c #FEF4E9",
"6.	c #FEBC72",
"7.	c #FE9014",
"8.	c #FEFEFE",
"9.	c #FEEEDC",
"0.	c #FEF7F0",
"a.	c #FEE9D2",
"b.	c #FEA035",
"c.	c #FEDFBC",
"d.	c #FEB766",
"e.	c #FEAF56",
"f.	c #FE951D",
"g.	c #FEAD51",
"h.	c #FEEAD5",
"i.	c #FEDDB9",
"j.	c #FE8B08",
"k.	c #FEDEBA",
"l.	c #FEC380",
"m.	c #FEBB70",
"n.	c #FEEAD4",
"o.	c #FEFAF7",
"p.	c #FEAB4E",
"q.	c #FE9218",
"r.	c #FEC584",
"s.	c #FEF6ED",
"t.	c #FEF8F2",
"u.	c #FE9C2E",
"v.	c #FE9116",
"w.	c #FEEDDA",
"x.	c #FEF3E8",
"y.	c #FEB665",
"z.	c #FE9F34",
"A.	c #FED3A2",
"B.	c #FED8AE",
"C.	c #FED5A8",
"D.	c #FEC88C",
"E.	c #FEA33C",
"F.	c #FEA847",
"G.	c #FED2A0",
"H.	c #FEFAF6",
"I.	c #FEEFDE",
"J.	c #FE8D0D",
"K.	c #FEB563",
"L.	c #FEBE75",
"M.	c #FE941C",
"N.	c #FEDAB2",
"O.	c #FEBF79",
"P.	c #FECF9B",
"Q.	c #FEA642",
"R.	c #FEE8D0",
"S.	c #FE9824",
"T.	c #FEF1E3",
"U.	c #FEDDB8",
"V.	c #FEEDDB",
"W.	c #FEC381",
"X.	c #FEA036",
"Y.	c #FEB15B",
"Z.	c #FEFBF9",
"`.	c #FE9927",
" +	c #FE8F11",
".+	c #FEB058",
"++	c #FEBD74",
"@+	c #FEA949",
"#+	c #FEF7F1",
"$+	c #FEB159",
"%+	c #FEB35F",
"&+	c #FEAE53",
"*+	c #FECA8F",
". . . . . . . . . . . . . . . . . . . . . . . . . . . . . . . . . . . . . . . . . . . . . . . . . . . . . . . . . . . . . . . . . . . . . . . . . . . . . . . . . . . . . . . . . . . . . . . . . . . . . . . . . . . . . . . . . . . . . . . . . . . . . . . . . . . . . . . . . . . . . . . . . . . . . . ",
". . . . . . . . . . . . . . . . . . . . . . . . . . . . . . . . . . . . . . . . . . . . . . . . . . . . . . . . . . . . . . . . . . . . . . . . . . . . . . . . . . . . . . . . . . . . . . . . . . . . . . . . . . . . . . . . . . . . . . . . . . . . . . . . . . . . . . . . . . . . . . . . . . . . . . ",
". . . . . . . . . . . . . . . . . . . . . . . . . . . . . . . . . . . . . . . . . . . . . . . . . . . . . . . . . . . . . . . . . . . . . . . . . . . . . . . . . . . . . . . . . . . . . . . . . . . . . . . . . . . . . . . . . . . . . . . . . . . . . . . . . . . . . . . . . . . . . . . . . . . . . . ",
". . . . . . . . . . . . . . . . . . . . . . . . . . . . . . . . . . . . . . . . . . . . . . . . . . . . . . . . . . . . . . . . . . . . . . . . . . . . . . . . . . . . . . . . . . . . . . . . . . . . . . . . . . . . . . . . . . . . . . . . . . . . . . . . . . . . . . . . . . . . . . . . . . . . . . ",
". . . . . . . . . . . . . . . . . . . . . . . . . . . . . . . . . . . . . . . . . . . . . . . . . . . . . . . . . . . . . . . . . . . . . . . . . . . . . . . . . . . . . . . . . . . . . . . . . . . . . . . . . . . . . . . . . . . . . . . . . . . . . . . . . . . . . . . . . . . . . . . . . . . . . . ",
". . . . . . . . . . . . . . . . . . . . . . . . . . . . . . . . . . . . . . . . . . . . . . . . . . . . . . . . . . . . . . . . . . . . . . . . . . . . . . . . . . . . . . . . . . . . . . . . . . . . . . . . . . . . . . . . . . . . . . . . . . . . . . . . . . . . . . . . . . . . . . . . . . . . . . ",
". . . . . . . . . . . . . . . . . . . . . . . . . . . . . . . . . . . . . . . . . . . . . . . . . . . . . . . . . . . . . . . . . . . . . . . . . . . . . . . . . . . . . . . . . . . . . . . . . . . . . . . . . . . . . . . . . . . . . . . . . . . . . . . . . . . . . . . . . . . . . . . . . . . . . . ",
". . . . . . . . . . . . . . . . . . . . . . . . . . . . . . . . . . . . . . . . . . . . . . . . . . . . . . . . . . . . . . . . . . . . . . . . . . . . . . . . . . . . . . . . . . . . . . . . . . . . . . . . . . . . . . . . . . . . . . . . . . . . . . . . . . . . . . . . . . . . . . . . . . . . . . ",
". . . . + + + + + + + + + + @ # $ % & * . . . . . . . . . . . . . . . . . . . . . . . . . . . . . . . . . . . . . . . . . . . . . . . . . . . . . . . . . . . . . . . . . . . . . . . . . . . . . . . . . . . . . . . . . . . = - ; > , + + + + . . . . . . . . . . . . . . . . . . . . . . . . . . . . . . ",
". . . . + + + + + + + + + + + + + + + ' ) ! . . . . . . . . . . . . . . . . . . . . . . . . . . . . . . . . . ~ + + + . . . . . . . . . . . . . . . . . . . . . . . . . . . . . . . . . . . . . . . . . . . . . . . . . . { ] ^ + + + + + + + + . . . . . . . . . . . . . . . . . . . . . . . . . . . . . . ",
". . . . + + + + + + + + + + + + + + + + + / ( . . . . . . . . . . . . . . . . . . . . . . . . . . . . . . . . ~ + + + . . . . . . . . . . . . . . . . . . . . . . . . . . . . . . . . . . . . . . . . . . . . . . . . . . _ + + + + + + + + + + . . . . . . . . . . . . . . . . . . . . . . . . . . . . . . ",
". . . . + + + : < < < < < < [ } | 1 + + + + 2 . . . . . . . . . . . . . . . . . . . . . . . . . . . . . . . . ~ + + + . . . . . . . . . . . . . . . . . . . . . . . . . . . . . . . . . . . . . . . . . . . . . . . . . . _ + + + + + 3 4 + + + . . . . . . . . . . . . . . . . . . . . . . . . . . . . . . ",
". . . . + + + ~ . . . . . . . . . . 5 6 + + + 7 . . . . . . . . . . . . . . . . . . . . . . . . . . . . . . . ~ + + + . . . . . . . . . . . . . . . . . . . . . . . . . . . . . . . . . . . . . . . . . . . . . . . . . . _ 8 1 9 0 a . ~ + + + . . . . . . . . . . . . . . . . . . . . . . . . . . . . . . ",
". . . . + + + ~ . . . . . . . . . . . b + + + c . . . . . . . . . . . . . . . . . . . . . . . . . . . . . . . ~ + + + . . . . . . . . . . . . . . . . . . . . . . . . . . . . . . . . . . . . . . . . . . . . . . . . . . d e . . . . . ~ + + + . . . . . . . . . . . . . . . . . . . . . . . . . . . . . . ",
". . . . + + + ~ . . . . . . . . . . . f + + + g . . . . . . . . . . . . . . . . . . . . . . . . . . . . . . . ~ + + + . . . . . . . . . . . . . . . . . . . . . . . . . . . . . . . . . . . . . . . . . . . . . . . . . . . . . . . . . ~ + + + . . . . . . . . . . . . . . . . . . . . . . . . . . . . . . ",
". . . . + + + ~ . . . . . . . . . . . h + + + i . . . . . . . . . . . . . j k l m & n d . . . . . . . . . . . ~ + + + . . . . . . . . . . . . . . . . j o 5 p m ; q r . . . . . . . . . . . . . . . . . . . . . . . . . . . . . . . . . ~ + + + . . . . . . . . . . . . . . . . . . . . . . . . . . . . . . ",
". . . . + + + ~ . . . . . . . . . . . h + + + s . . . . . . . . . . . t u 6 + + + + + 6 v w . . . . . . . + + + + + + + + + + + + + + . . . . . x y z + + + + + + + + A B C . . . . . . . . . . . . . . . . . . . . . . . . . . . . . . ~ + + + . . . . . . . . . . . . . . . . . . . . . . . . . . . . . . ",
". . . . + + + ~ . . . . . . . . . . . D + + + E . . . . . . . . . F G + + + + + + + + + + H I . . . . . . + + + + + + + + + + + + + + . . . . t + + + + + + + + + + + + + J K . . . . . . . . . . . . . . . . . . . . . . . . . . . . . ~ + + + . . . . . . . . . . . . . . . . . . . . . . . . . . . . . . ",
". . . . + + + ~ . . . . . . . . . . . L + + + B . . . . . . . . M z + + + + N O P Q R + + + + S . . . . . + + + + + + + + + + + + + + . . . . n + + + T U O P V W X + + + + Y e . . . . . . . . . . . . . . . . . . . . . . . . . . . . ~ + + + . . . . . . . . . . . . . . . . . . . . . . . . . . . . . . ",
". . . . + + + ~ . . . . . . . . . . B 6 + + Z ` . . . . . . .  ...+ + + s +.. . . . e @.' + + H #.. . . . < < : + + + < < < < < < < < . . . . n $.y %.C . . . . . h &.# + + + I . . . . . . . . . . . . . . . . . . . . . . . . . . . . ~ + + + . . . . . . . . . . . . . . . . . . . . . . . . . . . . . . ",
". . . . + + + : < < < < < < *.=.& -.+ + + ;.>.. . . . . . . . ,.+ + + '. .. . . . . . . ).!.+ + ~.. . . . . . ~ + + + . . . . . . . . . . . . K h . . . . . . . . . . *.# + + {.! . . . . . . . . . . . . . . . . . . . . . . . . . . . ~ + + + . . . . . . . . . . . . . . . . . . . . . . . . . . . . . . ",
". . . . + + + + + + + + + + + + + + + + W ].. . . . . . . . = ^.+ + /.C . . . . . . . . . (.+ + + _.. . . . . ~ + + + . . . . . . . . . . . . . . . . . . . . . . . . . :.+ + + <.. . . . . . . . . . . . . . . . . . . . . . . . . . . ~ + + + . . . . . . . . . . . . . . . . . . . . . . . . . . . . . . ",
". . . . + + + + + + + + + + + + + + + [._.. . . . . . . . . }.+ + + |.. . . . . . . . . . 1.+ + + 2.. . . . . ~ + + + . . . . . . . . . . . . . . . . . . . . . . . . . 3.+ + + ) . . . . . . . . . . . . . . . . . . . . . . . . . . . ~ + + + . . . . . . . . . . . . . . . . . . . . . . . . . . . . . . ",
". . . . + + + + + + + + + + + + + + + + + 4.5.. . . . . . . 6.+ + !.` . . . . . . . . . . . 7.+ + -.. . . . . ~ + + + . . . . . . . . . . . . . . . . . . 8.` r < < < < 9.+ + + V . . . . . . . . . . . . . . . . . . . . . . . . . . . ~ + + + . . . . . . . . . . . . . . . . . . . . . . . . . . . . . . ",
". . . . + + + ~ . . . . . .  .0.a.&.b.+ + + $ d . . . . . . u + + N < < < < < < < < < < < < , + + N . . . . . ~ + + + . . . . . . . . . . . . . .  .c.d.~.' + + + + + + + + + + ... . . . . . . . . . . . . . . . . . . . . . . . . . . ~ + + + . . . . . . . . . . . . . . . . . . . . . . . . . . . . . . ",
". . . . + + + ~ . . . . . . . . . . 8.m + + + e.. . . . . . f.+ + + + + + + + + + + + + + + + + + 4 . . . . . ~ + + + . . . . . . . . . . . . . x U + + + + + + + + + + + + + + b.. . . . . . . . . . . . . . . . . . . . . . . . . . . ~ + + + . . . . . . . . . . . . . . . . . . . . . . . . . . . . . . ",
". . . . + + + ~ . . . . . . . . . . . . g.+ + + h.. . . . . ^ + + + + + + + + + + + + + + + + + + + . . . . . ~ + + + . . . . . . . . . . . . i.j.+ + + + + + + + + + + + + + + ~ . . . . . . . . . . . . . . . . . . . . . . . . . . . ~ + + + . . . . . . . . . . . . . . . . . . . . . . . . . . . . . . ",
". . . . + + + ~ . . . . . . . . . . . . k.+ + + l.. . . . . T + + + + + + + + + + + + + + + + + + + . . . . . ~ + + + . . . . . . . . . . . * 7.+ + + # m.n n.* o.. . . . + + + ~ . . . . . . . . . . . . . . . . . . . . . . . . . . . ~ + + + . . . . . . . . . . . . . . . . . . . . . . . . . . . . . . ",
". . . . + + + ~ . . . . . . . . . . . . d + + + p.. . . . . q.+ + /.. . . . . . . . . . . . . . . . . . . . . ~ + + + . . . . . . . . . . . r.+ + + u s.. . . . . . . . t.+ + + ~ . . . . . . . . . . . . . . . . . . . . . . . . . . . ~ + + + . . . . . . . . . . . . . . . . . . . . . . . . . . . . . . ",
". . . . + + + ~ . . . . . . . . . . . . e + + + i . . . . . u.+ + v.. . . . . . . . . . . . . . . . . . . . . ~ + + + . . . . . . . . . . . u + + + [ . . . . . . . . . w.+ + + ~ . . . . . . . . . . . . . . . . . . . . . . . . . . . ~ + + + . . . . . . . . . . . . . . . . . . . . . . . . . . . . . . ",
". . . . + + + ~ . . . . . . . . . . . . x.+ + + v . . . . . y.+ + + 3.. . . . . . . . . . . . . . . . . . . . z.+ + + . . . . . . . . . . . 7.+ + ^.. . . . . . . . . . A.+ + + ~ . . . . . . . . . . . . . . . . . . . . . . . . . . . ~ + + + . . . . . . . . . . . . . . . . . . . . . . . . . . . . . . ",
". . . . + + + ~ . . . . . . . . . . . . B.+ + + > . . . . . C.+ + + D.. . . . . . . . . . . . . . . . . . . . E.+ + + ! . . . . . . . . . . ;.+ + : . . . . . . . . . . F.+ + + ~ . . . . . . . . . . . . . . . . . . . . . . . . . . . ~ + + + . . . . . . . . . . . . . . . . . . . . . . . . . . . . . . ",
". . . . + + + ~ . . . . . . . . . . . 8.E.+ + + G.. . . . . H.Z + + q.K . . . . . . . . . . . . . . . . . . . O + + + I.. . . . . . . . . . {.+ + J.e . . . . . . . . %.H + + + ~ . . . . . . . . . . . . . . . . . . . . . . . . . . . ~ + + + . . . . . . . . . . . . . . . . . . . . . . . . . . . . . . ",
". . . . + + + ~ . . . . . . . . . . H.K.+ + + $.F . . . . . . D.+ + + 1 s.. . . . . . . . . .  .B.0.. . . . . L.+ + + & . . . . . . . . . . ..+ + + & . . . . . . . 9.M.+ + + + ~ . . . . . . . . . . . . . . . . . . . . . . . . . . . ~ + + + . . . . . . . . . . . . . . . . . . . . . . . . . . . . . . ",
". . . . + + + : < < < < < < I.a.N.O.M.+ + + + P.. . . . . . . = Q.+ + + M.5 h . . . . .  .R._ S.+ T.. . . . . U.+ + + 4 r.=.V.< < < < . . . l + + + T l C . . . C A.v.+ 7.+ + + ~ . . . . . . . . . . . . . . . . . . . . . < < < < < < : + + + < < < < < < < . . . . . . . . . . . . . . . . . . . . . . . ",
". . . . + + + + + + + + + + + + + + + + + + W.. . . . . . . . . j u.+ + + + T X.g.Y.p.Y ^ + + + + T.. . . . . 8.u.+ + + + + + + + + + . . . Z.`.+ + + + v.O Y.F. ++ + 6 N.+ + + ~ . . . . . . . . . . . . . . . . . . . . . + + + + + + + + + + + + + + + + + . . . . . . . . . . . . . . . . . . . . . . . ",
". . . . + + + + + + + + + + + + + + + + $ k.. . . . . . . . . . . ( .++ + + + + + + + + + + + + X 5.. . . . . . V.$ + + + + + + + + + . . . . *.3 + + + + + + + + + ;.B . + + + ~ . . . . . . . . . . . . . . . . . . . . . + + + + + + + + + + + + + + + + + . . . . . . . . . . . . . . . . . . . . . . . ",
". . . . + + + + + + + + + + H J.M.J ++_.. . . . . . . . . . . . . . . x g 8 + + + + + + + ^ @+&.#+. . . . . . . . ! |.$+A  +;.+ + + + . . . . . 5.%+;.+ + + + + ' &+7 . . + + + ~ . . . . . . . . . . . . . . . . . . . . . + + + + + + + + + + + + + + + + + . . . . . . . . . . . . . . . . . . . . . . . ",
". . . . . . . . . . . . . . . . . . . . . . . . . . . . . . . . . . . . . ! %.G.D.r.@.C.7 e . . . . . . . . . . . . . . . . . . . . . . . . . . . . * k *+m P.<.0.. . . . . . . . . . . . . . . . . . . . . . . . . . . . . . . . . . . . . . . . . . . . . . . . . . . . . . . . . . . . . . . . . . . . . ",
". . . . . . . . . . . . . . . . . . . . . . . . . . . . . . . . . . . . . . . . . . . . . . . . . . . . . . . . . . . . . . . . . . . . . . . . . . . . . . . . . . . . . . . . . . . . . . . . . . . . . . . . . . . . . . . . . . . . . . . . . . . . . . . . . . . . . . . . . . . . . . . . . . . . . . ",
". . . . . . . . . . . . . . . . . . . . . . . . . . . . . . . . . . . . . . . . . . . . . . . . . . . . . . . . . . . . . . . . . . . . . . . . . . . . . . . . . . . . . . . . . . . . . . . . . . . . . . . . . . . . . . . . . . . . . . . . . . . . . . . . . . . . . . . . . . . . . . . . . . . . . . ",
". . . . . . . . . . . . . . . . . . . . . . . . . . . . . . . . . . . . . . . . . . . . . . . . . . . . . . . . . . . . . . . . . . . . . . . . . . . . . . . . . . . . . . . . . . . . . . . . . . . . . . . . . . . . . . . . . . . . . . . . . . . . . . . . . . . . . . . . . . . . . . . . . . . . . . ",
". . . . . . . . . . . . . . . . . . . . . . . . . . . . . . . . . . . . . . . . . . . . . . . . . . . . . . . . . . . . . . . . . . . . . . . . . . . . . . . . . . . . . . . . . . . . . . . . . . . . . . . . . . . . . . . . . . . . . . . . . . . . . . . . . . . . . . . . . . . . . . . . . . . . . . ",
". . . . . . . . . . . . . . . . . . . . . . . . . . . . . . . . . . . . . . . . . . . . . . . . . . . . . . . . . . . . . . . . . . . . . . . . . . . . . . . . . . . . . . . . . . . . . . . . . . . . . . . . . . . . . . . . . . . . . . . . . . . . . . . . . . . . . . . . . . . . . . . . . . . . . . ",
". . . . . . . . . . . . . . . . . . . . . . . . . . . . . . . . . . . . . . . . . . . . . . . . . . . . . . . . . . . . . . . . . . . . . . . . . . . . . . . . . . . . . . . . . . . . . . . . . . . . . . . . . . . . . . . . . . . . . . . . . . . . . . . . . . . . . . . . . . . . . . . . . . . . . . ",
". . . . . . . . . . . . . . . . . . . . . . . . . . . . . . . . . . . . . . . . . . . . . . . . . . . . . . . . . . . . . . . . . . . . . . . . . . . . . . . . . . . . . . . . . . . . . . . . . . . . . . . . . . . . . . . . . . . . . . . . . . . . . . . . . . . . . . . . . . . . . . . . . . . . . . ",
". . . . . . . . . . . . . . . . . . . . . . . . . . . . . . . . . . . . . . . . . . . . . . . . . . . . . . . . . . . . . . . . . . . . . . . . . . . . . . . . . . . . . . . . . . . . . . . . . . . . . . . . . . . . . . . . . . . . . . . . . . . . . . . . . . . . . . . . . . . . . . . . . . . . . . ",
". . . . . . . . . . . . . . . . . . . . . . . . . . . . . . . . . . . . . . . . . . . . . . . . . . . . . . . . . . . . . . . . . . . . . . . . . . . . . . . . . . . . . . . . . . . . . . . . . . . . . . . . . . . . . . . . . . . . . . . . . . . . . . . . . . . . . . . . . . . . . . . . . . . . . . ",
". . . . . . . . . . . . . . . . . . . . . . . . . . . . . . . . . . . . . . . . . . . . . . . . . . . . . . . . . . . . . . . . . . . . . . . . . . . . . . . . . . . . . . . . . . . . . . . . . . . . . . . . . . . . . . . . . . . . . . . . . . . . . . . . . . . . . . . . . . . . . . . . . . . . . . ",
". . . . . . . . . . . . . . . . . . . . . . . . . . . . . . . . . . . . . . . . . . . . . . . . . . . . . . . . . . . . . . . . . . . . . . . . . . . . . . . . . . . . . . . . . . . . . . . . . . . . . . . . . . . . . . . . . . . . . . . . . . . . . . . . . . . . . . . . . . . . . . . . . . . . . . "};
