/* XPM */
static char * load_xpm[] = {
"89 73 134 2",
"  	c None",
". 	c #000000",
"+ 	c #010101",
"@ 	c #060606",
"# 	c #0D0D0D",
"$ 	c #141414",
"% 	c #171717",
"& 	c #151515",
"* 	c #101010",
"= 	c #090909",
"- 	c #020202",
"; 	c #040404",
"> 	c #0B0B0B",
", 	c #121212",
"' 	c #161616",
") 	c #111111",
"! 	c #030303",
"~ 	c #191919",
"{ 	c #1A1A1A",
"] 	c #050505",
"^ 	c #1C1C1C",
"/ 	c #1D1D1D",
"( 	c #1B1B1B",
"_ 	c #181818",
": 	c #0A0A0A",
"< 	c #131313",
"[ 	c #0F0F0F",
"} 	c #1F1F1F",
"| 	c #2E2E2E",
"1 	c #363636",
"2 	c #323232",
"3 	c #252525",
"4 	c #2A2A2A",
"5 	c #343434",
"6 	c #282828",
"7 	c #333333",
"8 	c #393939",
"9 	c #3C3C3C",
"0 	c #3D3D3D",
"a 	c #3E3E3E",
"b 	c #3A3A3A",
"c 	c #292929",
"d 	c #0C0C0C",
"e 	c #1E1E1E",
"f 	c #303030",
"g 	c #424242",
"h 	c #454545",
"i 	c #444444",
"j 	c #404040",
"k 	c #383838",
"l 	c #070707",
"m 	c #353535",
"n 	c #080808",
"o 	c #262626",
"p 	c #2D2D2D",
"q 	c #4A4A4A",
"r 	c #565656",
"s 	c #4F4F4F",
"t 	c #202020",
"u 	c #535353",
"v 	c #3F3F3F",
"w 	c #232323",
"x 	c #212121",
"y 	c #3B3B3B",
"z 	c #515151",
"A 	c #5B5B5B",
"B 	c #5F5F5F",
"C 	c #606060",
"D 	c #5C5C5C",
"E 	c #414141",
"F 	c #2F2F2F",
"G 	c #4B4B4B",
"H 	c #5E5E5E",
"I 	c #676767",
"J 	c #6B6B6B",
"K 	c #6A6A6A",
"L 	c #636363",
"M 	c #575757",
"N 	c #222222",
"O 	c #545454",
"P 	c #525252",
"Q 	c #555555",
"R 	c #474747",
"S 	c #6F6F6F",
"T 	c #666666",
"U 	c #4C4C4C",
"V 	c #6C6C6C",
"W 	c #2B2B2B",
"X 	c #4D4D4D",
"Y 	c #696969",
"Z 	c #757575",
"` 	c #797979",
" .	c #777777",
"..	c #747474",
"+.	c #737373",
"@.	c #767676",
"#.	c #727272",
"$.	c #7D7D7D",
"%.	c #828282",
"&.	c #808080",
"*.	c #313131",
"=.	c #6D6D6D",
"-.	c #0E0E0E",
";.	c #686868",
">.	c #6E6E6E",
",.	c #7B7B7B",
"'.	c #717171",
").	c #787878",
"!.	c #7A7A7A",
"~.	c #818181",
"{.	c #434343",
"].	c #5D5D5D",
"^.	c #7C7C7C",
"/.	c #494949",
"(.	c #272727",
"_.	c #373737",
":.	c #585858",
"<.	c #616161",
"[.	c #5A5A5A",
"}.	c #4E4E4E",
"|.	c #626262",
"1.	c #595959",
"2.	c #484848",
"3.	c #707070",
"4.	c #505050",
"5.	c #2C2C2C",
"6.	c #646464",
"7.	c #242424",
"8.	c #7E7E7E",
"9.	c #838383",
"0.	c #7F7F7F",
"a.	c #656565",
"b.	c #848484",
"c.	c #464646",
". . . . . . . . . . . . . . . . . . . . . . . . . . . . . . . . . . . . . . . . . . . . . . . . . . . . . . . . . . . . . . . . . . . . . . . . . . . . . . . . . . . . . . . . . ",
". . . . . . . . . . . . . . + . . . . . . . . . . . . . . . . . . . . . . . . . . . . . . . . . . + + . . . . . . . . . . . . . . . . . . . . . . . . . + . . . . . . . . . . . . ",
". + . . . . . . . . . . . + + + . . . . . . . . . . . . . . . . . . . . . . . . . . . . . . . . + + + . . . . . . . . . . . . . . . . . . . . . . . . + + + . . . . . . . . . . + ",
". + . . . . . . . . . . . + + + . . . . . . . . . . . . . . . . . . . . . . . . . . . . . . . . + + + . . . . . . . . . . . . . . . . . . . . . . . . + + + . . . . . . . . . . . ",
". . . . . + + + + + . . . . . . . . + + + + + + . . . . + + + + + + + + + + + + + + + + + + . . . . . . . . + + + + + + + + + . . . . + + + + + + . . . . . . . + + + + + + . . . ",
". . . + @ # $ % & * = - . . . . . ; > , ' ' ) = ! . ! = * ' ~ { { { { { { { { { { { ~ ' ) > ] + . . . . . ] # $ { ^ / / ( _ ) = ! . ! : , % ' ) : ; . . . . . ! = * ' % < # @ . . ",
". . . - [ } | 1 2 3 $ @ . . . . . : { 4 5 5 6 ' @ . @ $ 3 7 8 9 0 0 0 a a a 0 0 0 9 b 5 c { d + . . . . . > e f 9 g h i j k 6 ' @ . l _ c m 5 6 _ n . . . . . l ' o 7 1 p / # + . ",
". . . ! _ 2 q r s b t = . . . . . * c g u u v w : . : x y z A B C B B B C C B B B B D u E 4 < - . . . . . < F G H I J K L M v N : . d o g O P j o # . . . . . > w 0 z Q R F & - . ",
". . . ; e j B S T U c > . . . . . $ m r V J P p # . # W X Y Z `  ...+.......+... .` @.J O 1 _ - . . . . - ^ 0 D #.$.%.&.` K U c d . * *.Q =.K u *.) . . . . . -.p s ;.>.D 0 ( - . ",
". . . ] N R Y ,.'.u p d . . . . . ' y B ). .A 2 -.. [ f r ..&.&.!.+.S >.>.>.S #.` &.~. .H 9 { - . . . ; ) 6 {.].S ).^.^.Z I /.(.: . , _.B ` @.A 1 < . . . . . * 2 :...!.T {.e ! . ",
". . . ] N /.V $.+.u W n . . . . . % 9 <.!.` D 7 [ . * 7 [.).&.!.V H r P z P Q D K ` &.!.<.0 ~ - . ; , t W _.{.}.r A H H [.s k ^ @ . & b |.,.).]._.< . . . . . * 7 1.@.^.;.i e ! . ",
". . . ] N 2.K !.3.4.6 ] . . . . . % y B  .@.[.2 -.. * 5 A @.!.V Q v 2 5.4 5.*.0 P K ` ).C y % + ! $ 5.E /.R E k 7 2 5 1 m | } # . . ' y <.).Z A 1 < . . . . . * 2 M +.!.T {.e ! . ",
". . . ] x h T @.V X (.] . . . . . ' 8 D +.#.M f -.. ) 5 [.+.+.H v x * n ] l [ } y A #.Z H 8 & + n w h B 6.r 0 7., d # * , * n . . + _ y H ..'.:.5 , . . . . . [ f O 3.Z |.E / ! . ",
". . . ] t i 6.Z V z | [ . . . . . & _.[.#.'.r f -.. ) 5 [.+.3.r 2 * . . . . . # | P >...H k $ . > 5.O '.Z B 9 % . . . . . . . . . + ~ 9 H +.3.M 5 , . . . . . [ f u >...<.j ^ ! . ",
". . . ; } g |...3.D E 6 % : . . . ) 5 :.'.'.r f -.. ) 5 [.+.S O F > . . . . . n 4 4.=...H k < . # *.A !.$.6.y , . . . . . . . . . + { 0 H +.3.r 2 [ . . . . . d | P >...<.j ^ ! . ",
". . . ; e j B +.@.V D q b 3 -.. . > F r '.'.M f -.. ) 5 [.+.S O F d . . . . . n W z =...H k < . # 2 H 8.&.T y * . . . . . . . . . + { 0 B +.S Q F d . . . . . = W z =...|.j ^ ! . ",
". . . ; / a ].+.,.,...Y [.v e - . l W O 3.'.M f -.. ) 5 [.+.3.r 2 [ . . . . . d p P >...].k < . # *.D ,.8.6.y , . . . . . . . . . + { 0 B +.S O | > . . . . . l 4 4.=...|.j / ! . ",
". . . ; / 9 D +.8.9.%.,.=.s W > . > | Q '.'.r f -.. ) 5 [.#.3.M 5 , . . . . . [ F u >...].k $ . > p Q #.@.C 9 % . . . . . . . . . + ~ 9 H +.3.r 2 [ . . . . . d | P >...<.j ^ ! . ",
". . . ; / 0 D +.$.0.^...;.4.7 { [ ^ b A #.3.Q F # . ) 5 [.#.3.M 5 , . . . . . [ f u >...H 8 & + n 7.R <.T M 0 N * = = d -.d ] . . + % b D #.'.D 0 } # ] - ] d ^ 8 1.3.+.C v ^ - . ",
". . . ; e a H +.).#.T 1.4.h 8 *.F y z I Z S P p # . ) 5 [.#.3.M 5 , . . . . . [ f u >...B y % + ; ' F i U /.E _.f | | | 5.o ~ = . + & 1 1.'...I z y | c (.c | 8 }.6...+.H 0 ( - . ",
". . . ; } E <...#.C /.m F 7 0 /.u ].K Z ).=.4.W d . ) 5 [.#.3.M 5 , . . . . . [ f u >...C 0 ~ - . @ $ w | 8 i X u r M O s i F % ; . , 2 Q 3.).#.T [.u 4.s 4.P :.a.'.).#.A y { - . ",
". . . ; t {.L ..=.z F & * x 0 1.=. .8.0.!.V }.4 d . ) 5 [.#.3.M 5 , . . . . . [ f u >...<.v ( - . . . l < c i D =.Z  .Z =.B {.w = . [ F P S !.,. .'.>.=.=.=.>.3.@.,.,.'.1.8 { - . ",
". . . ] t i 6.Z K 2.x ! . $ _.A +.8.9.%.,.V X c d . ) 5 [.#.3.M 5 , . . . . . [ F u >...<.j / ! . . . . ! / 0 ].+.8.b.b.8.S 4.W d . -.p z >.,.$.!.@...........Z !.$.^.'.1.8 ~ - . ",
". . . ] t i a.Z Y R e . . : c /.C >. .^.` =.s 4 d . ) 5 [.+.3.r 2 [ . . . . . d p P >...|.E / ! . . . . . [ W R ].V ` ~.~.Z r F # . -.| P S `  .S T <.B B B <.a.>.@.` '.[.b { - . ",
". . . ] t i a.Z K /.N - . + & 5.v 4.|.3. .>.z 5.d . ) 5 [.+.S O F d . . . . . n W z =...|.E e ! . . . . . + < o k G <...$.Z M f -.. [ f Q 3.@.V A /.v y b y v 2.1.K @.#.D 9 ( - . ",
". . . ] t i 6.Z J X (.n . . - -.^ F q 6...3.O | # . ) 5 [.+.S O F > . . . . . n 4 4.=...|.E / ! . . . . . . . l $ c R 6.@.+.M f -.. * 2 :.'.+.C h W ( $ , $ { 6 g H '.+.B a ^ - . ",
". . . ] t i 6.Z V s W d . . . . - _ 8 A #.'.r F -.. ) 5 [.+.3.r 2 * . . . . . # | P >...<.j / ! . . . . . . . . . ' k A #.'.r f -.. ) 5 [.#.3.:.m $ + . . . . ) *.O >...<.j ^ ! . ",
". . . ] t h a.@.=.z p # . . . . . [ 5 1.+.+.:.*.-.. ) 5 [.+.+.H v x * n ] l [ } y A #.Z <.a ( - . . l [ ) # l ] : e a B ..#.r f -.. ) m D ..'.r f d . . . . . = 5.P S @.L E / ! . ",
". . . ] N R Y !.'.O | # . . . . . [ m D @. .A 2 -.. * 5 A @.!.V Q v 2 5.4 5.*.0 P K ` ).<.0 ~ - . d e | 5 2 5.6 4 8 P J !.Z M f -.. , _.B ).Z :.*.d . . . . . n p O #.!.T {.e ! . ",
". . . ] N /.J $...r F # . . . . . , 8 B ` ` ].7 [ . * 7 [.).&.!.V H r P z P Q D K ` &.!.B b ' + ; ~ m X 1.[.Q z z [.K ` &.@.r F # . , k <.,.).D 5 [ . . . . . d f :.@.$.;.h } ! . ",
". . . ] N R Y ,.#.O | # . . . . . ' b B  . .A 2 -.. [ f r ..&.&.!.+.S >.>.>.S #.` &.~. .A m < + n w c.6... .Z 3.>.+.!.&.&.#.P 5.d . , _.B ` @.A 1 , . . . . . [ *.M ..!.T {.e ! . ",
". . . ; e j B S T U c > . . . . . $ m r V J P p # . # W X ;.Z ). ...+.+.+.+.+...@.).@.K 4.| [ . = 3 2.I  .,.!.@.+... .)...T /.(.: . * *.Q =.K u *.) . . . . . -.p s ;.>.D 0 ( - . ",
". . . ! _ 2 q r s b t = . . . . . * c g u u v w : . = } k X M A D A A D D D A A D D :.s b } n . ; ( k z H |.<.].A A D A M G 5 { ; . = 7.E O P j o # . . . . . > w 0 z Q R F & - . ",
". . . - [ } | 1 2 3 $ @ . . . . . : { 4 5 5 6 % l . ] ) } W *.5 m m m 1 1 1 m m m m 2 5.} -.. . . d } F _.b 8 _.m m m 5 *.4 ( : . . + $ (.5 5 c _ n . . . . . l ' o 7 1 p / # + . ",
". . . + @ # $ % & * = - . . . . . ; > , ' ' ) : ! . + ] : -.* ) ) ) , , , , , , , , ) -.n + . . . . n [ < $ < , , , , ) * # l . . . . @ * ' % , > ; . . . . . ! = * ' % < # @ . . ",
". . . . . + + + + + . . . . . . . . + + + + + + . . . . . . . . . . . . . . . . . . . . . . . . . . . . . . . . . . . . . . . . . . . . + + + + + . . . . . . . + + + + + + . . . ",
". + . . . . . . . . . . . + + + . . . . . . . . . . ! @ = d # -.# # # # # # # # d d d # [ ) < $ < ) -.d : > > d # # d d d # * < & $ [ n . . . . . . . + + + . . . . . . . . . . . ",
". + . . . . . . . . . . . + + + . . . . . . . . . . = & N 5.f *.f F | | | | | | | p | | f 7 m 1 m *.p c 6 c 4 p | | | | | F 7 _.8 1 W { n . . . . . . + + + . . . . . . . . . . + ",
". . . . . . . . . . . . . . + . . . . . . . . . . + * (.a 4.1.A 1.r Q Q Q Q Q O O O O Q r :.1.1.M O 4.X U X 4.u O Q Q Q O Q 1.H B 1.2.F & . . . . . . . + . . . . . . . . . . . . ",
". . . . . . . . . . . . . . . . . . . . . . . . . + & 7 P K @.).@.#.3.3.3.3.3.3.3.3.3.3.'.'.'.'.3.>.V J J V =.S 3.'.'.3.3.'.Z ).).3.A 0 e ] . . . . . . . . . . . . . . . . . . . ",
". . . . . . . . . . . . . . . . . . . . . . . . . + ' 5 u V ).!. .+.#.#.#.#.#.#.#.#.#.#.#.#.#.#.+.@.).` !.).@...#.#.#.#.#.+.@.!.!.'.D a } @ . . . . . . . . . . . . . . . . . . . ",
". . . . . . . . . . . . . . . . . . . . . . . . . + , 4 {.M C <.H 1.:.:.1.A D D D D D D A [.[.A <.J Z ^.$. .=.L D [.[.A D D B |.|.A q 2 ~ ] . . . . . . . . . . . . . . . . . . . ",
". . . . . . . . . . . . . . . . . . . . . . . . . . > ( 4 _.9 y _.7 2 7 m _.8 b b b b 8 k m m k i M J ` !.>.A R b m m _.8 b 9 a 0 8 F } * ! . . . . . . . . . . . . . . . . . . . ",
". . . . . . . . . . . . . . . . . . . . . . . . . . ] > ) ' % ' < * [ * , & % % _ % % % $ ) * & o E B +.@.6.2.W _ ) * < ' % _ ~ _ % < # @ + . . . . . . . . . . . . . . . . . . . ",
". . . . . . . . . . . . . . . . . . . . . . . . . . . . . . . . . . . . . . . . . . . . . . . . , 5 M 3.+.H 9 ~ + . . . . . . . . . . . . . . . . . . . . . . . . . . . . . . . . ",
". . . . . . . . . . . . . . . . . . . . . . . + + . . . . . . . l # [ d ] . . . . . . . . . . . > F Q 3.+.D k < . . . . . . . . . . . . . . . + . . . . . . . . . . . . . . . . . ",
". . . . . . . . . . . . . . . . . . . . . . . + + . . . . . . # } p *.c ~ n . . . . . . . . . . > F Q 3.+.D k , . . . . . . . . . . . . . . . + . . . . . . . . . . . . . . . . . ",
". . . . . . . . . . . . . . . . . . . . . . . . . . . . . . ] e b 4.M q *.& . . . . . . . . . . -.*.r 3.+.].b & . . . . . . . . . . . . . . . . . . . . . . . . . . . . . . . . . ",
". . . . . . . . . . . . . . . . . . . . . . . . . . . . . . > 4 X Y '.<.g } ; . . . . . . . . . , 7 M 3.+.H y _ . . . . . . . . . . . . . . . . . . . . . . . . . . . . . . . . . ",
". . . . . . . . . . . . . . . . . . . . . . . . . . . . . . d 4 U I 3.C E } ; . . . . . . . . . , 5 M 3.+.H 9 ~ + . . . . . . . . . . . . . . . . . . . . . . . . . . . . . . . . ",
". . . . . . . . . . . . . . . . . . . . . . . . . . . . . . = } 8 }.O 2.*.% ! . . . . . . . . . , 5 M 3.+.H 9 ~ + . . . . . . . . . . . . . . . . . . . . . . . . . . . . . . . . ",
". . . . . . . . . . . . . . . . . . . . . . . . . . . . . . ] ) } 4 | (.( # - . . . . . . . . . , 5 M 3.+.H 9 ~ + . . . . . . . . . . . . . . . . . . . . . . . . . . . . . . . . ",
". . . . . . . . . . . . . . . . . . . . . . . . . . . . . . + ] = d # > l ! . . . . . . . . . . , 5 M 3.+.H 9 ~ + . . . . . . . . . . . . . . . . . . . . . . . . . . . . . . . . ",
". . . . . . . . . . . . . . . . . . . . . . . . . . . . . . . . . . . . . . . . . . . . . . . . , 5 M 3.+.H 9 ~ + . . . . . . . . . . . . . . . . . . . . . . . . . . . . . . . . ",
". . . . . . . . . . . . . . . . . . . . . . . . . . . . . . - @ : -.[ # = ; + . . . . . . . . . , 5 M 3.+.H 9 ~ + . . . . . . . . . . . . . . . . . . . . . . . . . . . . . . . . ",
". . . . . . . . . . . . . . . . . . . . . . . . . . . . . . ] ) } W | 6 ( # - . . . . . . . . . , 5 M 3.+.H 9 ~ + . . . . . . . . . . . . . . . . . . . . . . . . . . . . . . . . ",
". . . . . . . . . . . . . . . . . . . . . . . . . . . . . . n } k U P c.f ' ! . . . . . . . . . , 5 M 3.+.H 9 ~ + . . . . . . . . . . . . . . . . . . . . . . . . . . . . . . . . ",
". . . . . . . . . . . . . . . . . . . . . . . . . . . . . . > c G T >.B j e ; . . . . . . . . . , 5 M 3.+.H 9 ~ + . . . . . . . . . . . . . . . . . . . . . . . . . . . . . . . . ",
". . . . . . . . . . . . . . . . . . . . . . . . . . . . . . # | O #.,.Y R N ] . . . . . . . . . , 5 M 3.+.H 9 ~ + . . . . . . . . . . . . . . . . . . . . . . . . . . . . . . . . ",
". . . . . . . . . . . . . . . . . . . . . . . . . . . . . . # F Q ..$.J /.N ] . . . . . . . . . , 5 M 3.+.H 9 ~ + . . . . . . . . . . . . . . . . . . . . . . . . . . . . . . . . ",
". . . . . . . . . . . . . . . . . . . . . . . . . . . . . . # | u '.!.Y R N ] . . . . . . . . . , 5 M 3.+.H 9 ~ + . . . . . . . . . . . . . . . . . . . . . . . . . . . . . . . . ",
". . . . . . . . . . . . . . . . . . . . . . . . . . . . . . d 5.z =.@.a.h t ] . . . . . . . . . , 5 M 3.+.H 9 ~ + . . . . . . . . . . . . . . . . . . . . . . . . . . . . . . . . ",
". . . . . . . . . . . . . . . . . . . . . . . . . . . . . . d 5.4.V Z 6.i t ] . . . . . . . . . , 5 M 3.+.H 9 ~ + . . . . . . . . . . . . . . . . . . . . . . . . . . . . . . . . ",
". . . . . . . . . . . . . . . . . . . . . . . . . . . . . . d p P S ).I c.x ] . . . . . . . . . < m 1.+.@.C 0 ~ + . . . . . . . . . . . . . . . . . . . . . . . . . . . . . . . . ",
". . . . . . . . . . . . . . . . . . . . . . . . . . . . . . # | O #.^.K 2.N ] . . . . . . . . . < _.D  .!.6.v { + . . . . . . . . . . . . . . . . . . . . . . . . . . . . . . . . ",
". . . . . . . . . . . . . . . . . . . . . . . . . . . . . . # F Q ..$.J /.N ] . . . . . . . . . < _.].).,.a.j ( + . . . . . . . . . . . . . . . . . . . . . . . . . . . . . . . . ",
". . . . . . . . . . . . . . . . . . . . . . . . . . . . . . d p P S ).I c.x ] . . . . . . . . . < m 1.+.@.C 0 ~ + . . . . . . . . . . . . . . . . . . . . . . . . . . . . . . . . ",
". . . . . . . . . . . . . . . . . . . . . . . . . . . . . . > o c.B I :.9 ^ ; . . . . . . . . . * | X L a.u m ' + . . . . . . . . . . . . . . . . . . . . . . . . . . . . . . . . ",
". . . . . . . . . . . . . . . . . . . . . . . . . . . . . . n ^ 7 h q j W $ ! . . . . . . . . . d x k 2./.9 o * . . . . . . . . . . . . . . . . . . . . . . . . . . . . . . . . . ",
". . . . . . . . . . . . . . . . . . . . . . . . . . . . . . ; * / (.4 7._ d - . . . . . . . . . l < } 6 c N ' = . . . . . . . . . . . . . . . . . . . . . . . . . . . . . . . . . ",
". . . . . . . . . . . . . . . . . . . . . . . . . . . . . . + ] = # -.d n ; + . . . . . . . . . - @ : # # > l ! . . . . . . . . . . . . . . . . . . . . . . . . . . . . . . . . . ",
". . . . . . . . . . . . . . . . . . . . . . . . . . . . . . . . . . . . . . . . . . . . . . . . . . . . . . . . . . . . . . . . . . . . . . . . . . . . . . . . . . . . . . . . . ",
". . . . . . . . . . . . . . . . . . . . . . . . . . . . + . . . . . . . . . . . + . . . . + + . . . . . . . . . . + + . . . . . . . . . . . . . . . . . . . . . . . . . . . . . . "};
